<svg xmlns="http://www.w3.org/2000/svg" x="0" y="0" width="48" height="48" version="1.1" xmlns:xlink="http://www.w3.org/1999/xlink"><defs><linearGradient id="color-1" gradientUnits="userSpaceOnUse" x1="11.6897" y1="16.0044" x2="57.5235" y2="53.2088"><stop stop-color="rgb(0, 0, 0)" stop-opacity="0.7" offset="0" /><stop stop-color="rgb(0, 0, 0)" stop-opacity="0" offset="1" /></linearGradient><filter id="dropshadow"><feColorMatrix type="matrix" values="0 0 0 0 0.05 0 0 0 0 0.15 0 0 0 0 0.1 0 0 0 0.8 0" /> <feOffset dx="0" dy="1" /> <feGaussianBlur stdDeviation="1" /> <feComposite in="SourceGraphic" /></filter></defs><g font-family="none" font-size="none" font-weight="none" fill="none" stroke="none" stroke-dasharray="" stroke-dashoffset="0" stroke-linecap="butt" stroke-linejoin="miter" stroke-miterlimit="none" stroke-width="none" text-anchor="start" mix-blend-mode="normal"><g font-family="&quot;Open Sans&quot;,sans-serif" font-size="14px" font-weight="400" fill="#000000" stroke-miterlimit="4" stroke-width="0.01" /><g font-family="&quot;Open Sans&quot;,sans-serif" font-size="14px" font-weight="400" fill="#000000" stroke-miterlimit="4" stroke-width="0.01" /><g font-family="&quot;Open Sans&quot;,sans-serif" font-size="14px" font-weight="400" fill="#000000" stroke-miterlimit="4" stroke-width="0.01" /><path font-family="sans-serif" font-size="12px" font-weight="normal" filter="url(#dropshadow)" fill="#3820b6" stroke-miterlimit="10" stroke-width="1" d="M 3 24 c 0 -11.598 9.40202 -21 21 -21 c 11.598 0 21 9.40202 21 21 c 0 11.598 -9.40202 21 -21 21 c -11.598 0 -21 -9.40202 -21 -21 Z" /><path font-family="sans-serif" font-size="12px" font-weight="normal" fill="url(#color-1)" stroke-miterlimit="10" stroke-width="1" d="M 25.8465 25.8219 l 8.72803 -9.81748 c 0 0 10.3004 10.3004 10.3004 10.3004 c -1.06147 9.72344 -8.76072 17.4522 -18.4705 18.559 c 0 0 -12.8683 -12.8683 -12.8683 -12.8683 c 0 0 0 -1e-005 0 -1e-005 l -1.84654 -1.84654 l 9.23275 -9.25122 Z" /><path font-family="&quot;Open Sans&quot;,sans-serif" font-size="14px" font-weight="400" fill="#26e60a" stroke-miterlimit="4" stroke-width="0" d="M 11.6897 30.149 l 9.23275 -9.25122 l 4.92414 4.92414 l 8.72803 -9.81749 l 1.73576 1.74191 l -10.4638 11.7687 l -4.92414 -4.92414 l -7.3862 7.40467 Z" /></g></svg>